# num_vertices: 24 

mtllib cube_sable.mtl

v 29 29 58
v -29 29 58
v -29 -29 58
v 29 -29 58
v -29 -29 58
v -29 -29 0
v 29 -29 0
v 29 -29 58
v -29 29 58
v -29 29 0
v -29 -29 0
v -29 -29 58
v 29 29 58
v 29 29 0
v -29 29 0
v -29 29 58
v 29 -29 58
v 29 -29 0
v 29 29 0
v 29 29 58
v 29 -29 0
v -29 -29 0
v -29 29 0
v 29 29 0
# 24 vertices

vn 0 -0 1
vn 0 -0 1
vn 0 -0 1
vn 0 -0 1
vn 0 -1 0
vn 0 -1 0
vn 0 -1 0
vn 0 -1 0
vn -1 -0 0
vn -1 -0 0
vn -1 -0 0
vn -1 -0 0
vn 0 1 0
vn 0 1 0
vn 0 1 0
vn 0 1 0
vn 1 -0 0
vn 1 -0 0
vn 1 -0 0
vn 1 -0 0
vn 0 -0 -1
vn 0 -0 -1
vn 0 -0 -1
vn 0 -0 -1
# 24 normals

vt -29 29
vt -29 -29
vt 29 -29
vt 29 29
vt 0 29
vt 0 -29
vt 58 -29
vt 58 29
vt 0 29
vt 0 -29
vt 58 -29
vt 58 29
vt -0 29
vt -0 -29
vt 58 -29
vt 58 29
vt 0 29
vt 0 -29
vt 58 -29
vt 58 29
vt -29 29
vt -29 -29
vt 29 -29
vt 29 29
# 24 UVs

g  mesh 1 Sand Cube-1
usemtl  1 
f 3/3/3 1/1/1 2/2/2
f 1/1/1 3/3/3 4/4/4
f 7/7/7 5/5/5 6/6/6
f 5/5/5 7/7/7 8/8/8
f 11/11/11 9/9/9 10/10/10
f 9/9/9 11/11/11 12/12/12
f 13/13/13 15/15/15 16/16/16
f 15/15/15 13/13/13 14/14/14
f 17/17/17 19/19/19 20/20/20
f 19/19/19 17/17/17 18/18/18
f 23/23/23 21/21/21 22/22/22
f 21/21/21 23/23/23 24/24/24

